<svg xmlns="http://www.w3.org/2000/svg" viewBox="0 0 256 256" width="256" height="256">
	<style>
		tspan { white-space:pre }
		.shp0 { fill: #ffffff } 
	</style>
	<g >
		<path fill-rule="evenodd" class="shp0" d="M127.86 0.28C198.47 0.28 255.72 57.53 255.72 128.14C255.72 198.76 198.47 256 127.86 256C57.24 256 0 198.76 0 128.14C0 57.53 57.24 0.28 127.86 0.28L127.86 0.28ZM127.86 222.3C179.86 222.3 222.02 180.15 222.02 128.14C222.02 76.14 179.86 33.98 127.86 33.98C75.85 33.98 33.7 76.14 33.7 128.14C33.7 180.15 75.85 222.3 127.86 222.3Z" />
		<path class="shp0" d="M133.12 96.3C133.12 81.61 145.02 69.71 159.7 69.71C174.38 69.71 186.29 81.61 186.29 96.3C186.29 110.98 174.39 122.88 159.7 122.88C145.02 122.88 133.12 110.98 133.12 96.3M133.12 159.98C133.12 145.3 145.02 133.4 159.7 133.4C174.38 133.4 186.29 145.3 186.29 159.98C186.29 174.67 174.39 186.57 159.7 186.57C145.02 186.57 133.12 174.67 133.12 159.98M69.43 159.98C69.43 145.3 81.33 133.4 96.02 133.4C110.7 133.4 122.6 145.3 122.6 159.98C122.6 174.67 110.7 186.57 96.02 186.57C81.33 186.57 69.43 174.67 69.43 159.98ZM69.43 96.3C69.43 81.62 81.33 69.71 96.02 69.71C110.7 69.71 122.6 81.61 122.6 96.3C122.6 110.98 110.7 122.88 96.02 122.88C81.33 122.88 69.43 110.98 69.43 96.3Z" />
	</g>
</svg>